<?xml version="1.0" encoding="UTF-8"?>
<svg width="301px" height="235px" viewBox="0 0 301 235" version="1.1" xmlns="http://www.w3.org/2000/svg" xmlns:xlink="http://www.w3.org/1999/xlink">
    <title>intro</title>
    <g id="intro" stroke="none" stroke-width="1" fill="none" fill-rule="evenodd">
        <g id="section-1" transform="translate(-7.000000, 0.000000)">
            <text id="bs" font-family="OpenSans-Bold, Open Sans" font-size="24" font-weight="bold" fill="#FFFFFF">
                <tspan x="92.9765625" y="110">bob stoute</tspan>
            </text>
            <text id="angular" font-family="OpenSans-Bold, Open Sans" font-size="17" font-weight="bold" fill="#FFFFFF">
                <tspan x="71.3455916" y="139">media programming</tspan>
            </text>
            <text id="React-/-React-Native" font-family="OpenSans-Regular, Open Sans" font-size="14" font-weight="normal" fill="#FFFFFF">
                <tspan x="60.6166992" y="231">React / React Native / Angular</tspan>
            </text>
            <g id="Group" transform="translate(118.376997, 0.000000)" fill-rule="nonzero">
                <g id="icon-juggler">
                    <path d="M38.5423017,22.6434722 C44.9878886,22.6434722 50.21155,17.574375 50.21155,11.3226389 C50.21155,5.06909722 44.9878886,0 38.5423017,0 C32.0957841,0 26.871192,5.06909722 26.871192,11.3226389 C26.8721227,17.574375 32.0957841,22.6434722 38.5423017,22.6434722 L38.5423017,22.6434722 Z" id="Shape" fill="#EAEAEA"></path>
                    <ellipse id="Oval" fill="#CC0000" cx="5.06173074" cy="11.3226389" rx="5.06173074" ry="4.91020833"></ellipse>
                    <ellipse id="Oval" fill="#CC0000" cx="72.0210113" cy="11.3226389" rx="5.06080011" ry="4.90930556"></ellipse>
                    <ellipse id="Oval" fill="#CC0000" cx="38.5181051" cy="43.8226389" rx="5.06080011" ry="4.90930556"></ellipse>
                    <path d="M75.5993078,44.9222222 C73.6217057,43.005625 70.417525,43.005625 68.4399229,44.9222222 L65.8397251,47.4472917 L65.8397251,40.0427083 C65.8397251,32.5225694 59.819439,25.1568056 50.7457352,25.1568056 L38.541371,25.146875 L26.3360762,25.1568056 C17.2623724,25.1568056 11.2430169,32.5225694 11.2430169,40.0427083 L11.2430169,47.4463889 L8.64188853,44.9213194 C6.66521706,43.0047222 3.4601057,43.0047222 1.48343424,44.9213194 C-0.49323723,46.8379167 -0.49323723,49.9479861 1.48343424,51.8645833 L14.2080241,64.2100694 L21.3664784,57.265 L21.3664784,42.8097222 L23.7228495,42.8097222 L23.7228495,64.2100694 L53.3598926,64.2100694 L53.3598926,42.8097222 L55.7162636,42.8097222 L55.7162636,57.265 L62.8747179,64.2100694 L75.6002385,51.8654861 C77.5769099,49.9488889 77.5769099,46.8388194 75.5993078,44.9222222 Z M38.633504,48.3934028 C35.8378726,48.3934028 33.5717733,46.1969444 33.5717733,43.4840972 C33.5717733,40.7703472 35.8378726,38.5747917 38.633504,38.5747917 C41.4272741,38.5747917 43.6961654,40.77125 43.6961654,43.4840972 C43.6961654,46.1978472 41.4282048,48.3934028 38.633504,48.3934028 Z" id="Shape" fill="#EAEAEA"></path>
                </g>
            </g>
        </g>
        <g id="icon-html" transform="translate(132.000000, 165.000000)" fill="#FFFFFF">
            <path d="M11.6531078,24.8510587 C11.9040672,24.5718866 11.9040672,24.142391 11.6531078,23.8632188 L4.0664114,15.4236306 L11.6531078,6.98404231 C11.9040672,6.70487018 11.9040672,6.2753746 11.6531078,5.99620246 L10.6878793,4.9224635 C10.4369198,4.64329137 10.0508284,4.64329137 9.79986899,4.9224635 L0.803938905,14.9297107 C0.552979482,15.2088828 0.552979482,15.6383784 0.803938905,15.9175505 L9.79986899,25.9247976 C10.0508284,26.2039698 10.4369198,26.2039698 10.6878793,25.9247976 L11.6531078,24.8510587 Z M23.0621093,1.93746918 C23.1586321,1.57239793 22.9655864,1.1858519 22.6374087,1.07847801 L21.4405253,0.713406758 C21.1316522,0.606032861 20.7841699,0.820780654 20.687647,1.1858519 L13.4870421,28.909792 C13.3905192,29.2748632 13.5835649,29.6614092 13.9117426,29.7687831 L15.108626,30.1338544 C15.4174992,30.2412283 15.7649814,30.0264805 15.8615043,29.6614092 L23.0621093,1.93746918 Z M35.7452124,15.9175505 C35.9961718,15.6383784 35.9961718,15.2088828 35.7452124,14.9297107 L26.7492823,4.9224635 C26.4983229,4.64329137 26.1122315,4.64329137 25.8612721,4.9224635 L24.8960435,5.99620246 C24.6450841,6.2753746 24.6450841,6.70487018 24.8960435,6.98404231 L32.4827399,15.4236306 L24.8960435,23.8632188 C24.6450841,24.142391 24.6450841,24.5718866 24.8960435,24.8510587 L25.8612721,25.9247976 C26.1122315,26.2039698 26.4983229,26.2039698 26.7492823,25.9247976 L35.7452124,15.9175505 Z" id=""></path>
        </g>
    </g>
</svg>