<?xml version="1.0" encoding="UTF-8"?>
<svg width="99px" height="106px" viewBox="0 0 99 106" version="1.1" xmlns="http://www.w3.org/2000/svg" xmlns:xlink="http://www.w3.org/1999/xlink">
    <title>logo</title>
    <g id="logo" stroke="none" stroke-width="1" fill="none" fill-rule="evenodd">
        <g id="section-1" transform="translate(11.000000, 21.000000)" fill-rule="nonzero">
            <g id="icon-juggler">
                <path d="M38.9201205,22.6434722 C45.4288916,22.6434722 50.703759,17.574375 50.703759,11.3226389 C50.703759,5.06909722 45.4288916,0 38.9201205,0 C32.4104096,0 27.1346024,5.06909722 27.1346024,11.3226389 C27.1355422,17.574375 32.4104096,22.6434722 38.9201205,22.6434722 L38.9201205,22.6434722 Z" id="Shape" fill="#EAEAEA"></path>
                <ellipse id="Oval" fill="#CC0000" cx="5.1113494" cy="11.3226389" rx="5.1113494" ry="4.91020833"></ellipse>
                <ellipse id="Oval" fill="#CC0000" cx="72.727012" cy="11.3226389" rx="5.11040964" ry="4.90930556"></ellipse>
                <ellipse id="Oval" fill="#CC0000" cx="38.8956867" cy="43.8226389" rx="5.11040964" ry="4.90930556"></ellipse>
                <path d="M76.3403855,44.9222222 C74.3433976,43.005625 71.1078072,43.005625 69.1108193,44.9222222 L66.4851325,47.4472917 L66.4851325,40.0427083 C66.4851325,32.5225694 60.4058313,25.1568056 51.2431807,25.1568056 L38.9191807,25.146875 L26.594241,25.1568056 C17.4315904,25.1568056 11.3532289,32.5225694 11.3532289,40.0427083 L11.3532289,47.4463889 L8.72660241,44.9213194 C6.73055422,43.0047222 3.4940241,43.0047222 1.4979759,44.9213194 C-0.498072289,46.8379167 -0.498072289,49.9479861 1.4979759,51.8645833 L14.3473012,64.2100694 L21.5759277,57.265 L21.5759277,42.8097222 L23.9553976,42.8097222 L23.9553976,64.2100694 L53.8829639,64.2100694 L53.8829639,42.8097222 L56.2624337,42.8097222 L56.2624337,57.265 L63.4910602,64.2100694 L76.3413253,51.8654861 C78.3373735,49.9488889 78.3373735,46.8388194 76.3403855,44.9222222 Z M39.0122169,48.3934028 C36.1891807,48.3934028 33.9008675,46.1969444 33.9008675,43.4840972 C33.9008675,40.7703472 36.1891807,38.5747917 39.0122169,38.5747917 C41.8333735,38.5747917 44.124506,40.77125 44.124506,43.4840972 C44.124506,46.1978472 41.8343133,48.3934028 39.0122169,48.3934028 Z" id="Shape" fill="#EAEAEA"></path>
            </g>
        </g>
        <g id="section-1" transform="translate(11.000000, 21.000000)" fill-rule="nonzero">
            <g id="icon-juggler">
                <path d="M38.9201205,22.6434722 C45.4288916,22.6434722 50.703759,17.574375 50.703759,11.3226389 C50.703759,5.06909722 45.4288916,0 38.9201205,0 C32.4104096,0 27.1346024,5.06909722 27.1346024,11.3226389 C27.1355422,17.574375 32.4104096,22.6434722 38.9201205,22.6434722 L38.9201205,22.6434722 Z" id="Shape" fill="#EAEAEA"></path>
                <ellipse id="Oval" fill="#CC0000" cx="5.1113494" cy="11.3226389" rx="5.1113494" ry="4.91020833"></ellipse>
                <ellipse id="Oval" fill="#CC0000" cx="72.727012" cy="11.3226389" rx="5.11040964" ry="4.90930556"></ellipse>
                <ellipse id="Oval" fill="#CC0000" cx="38.8956867" cy="43.8226389" rx="5.11040964" ry="4.90930556"></ellipse>
                <path d="M76.3403855,44.9222222 C74.3433976,43.005625 71.1078072,43.005625 69.1108193,44.9222222 L66.4851325,47.4472917 L66.4851325,40.0427083 C66.4851325,32.5225694 60.4058313,25.1568056 51.2431807,25.1568056 L38.9191807,25.146875 L26.594241,25.1568056 C17.4315904,25.1568056 11.3532289,32.5225694 11.3532289,40.0427083 L11.3532289,47.4463889 L8.72660241,44.9213194 C6.73055422,43.0047222 3.4940241,43.0047222 1.4979759,44.9213194 C-0.498072289,46.8379167 -0.498072289,49.9479861 1.4979759,51.8645833 L14.3473012,64.2100694 L21.5759277,57.265 L21.5759277,42.8097222 L23.9553976,42.8097222 L23.9553976,64.2100694 L53.8829639,64.2100694 L53.8829639,42.8097222 L56.2624337,42.8097222 L56.2624337,57.265 L63.4910602,64.2100694 L76.3413253,51.8654861 C78.3373735,49.9488889 78.3373735,46.8388194 76.3403855,44.9222222 Z M39.0122169,48.3934028 C36.1891807,48.3934028 33.9008675,46.1969444 33.9008675,43.4840972 C33.9008675,40.7703472 36.1891807,38.5747917 39.0122169,38.5747917 C41.8333735,38.5747917 44.124506,40.77125 44.124506,43.4840972 C44.124506,46.1978472 41.8343133,48.3934028 39.0122169,48.3934028 Z" id="Shape" fill="#EAEAEA"></path>
            </g>
        </g>
    </g>
</svg>